<svg width="180" height="122" viewBox="0 0 180 122" fill="none" xmlns="http://www.w3.org/2000/svg">
<path d="M176.789 69.7573C176.766 69.7757 176.744 69.7924 176.725 69.8073C176.615 69.8324 176.46 69.8677 176.262 69.9125C175.83 70.0104 175.193 70.1537 174.374 70.3353C172.737 70.6984 170.373 71.2145 167.47 71.8255C161.662 73.0477 153.697 74.6496 145.066 76.1686C136.433 77.6879 127.145 79.1226 118.688 80.0123C112.006 80.7154 105.889 81.073 101.038 80.8762L97.3728 80.5892L97.1719 82.5786C98.3222 82.7209 99.5741 82.8173 100.913 82.8726L168.878 88.1952C171.974 91.4187 172.876 93.4316 172.734 94.9773C172.663 95.7657 172.311 96.5528 171.627 97.4372C170.987 98.2642 170.094 99.129 168.961 100.115H100.766L100.601 102.101L162.043 112.413C163.129 116.21 162.735 117.976 161.658 118.964C161.037 119.534 160.071 119.974 158.633 120.299C157.219 120.619 155.449 120.806 153.291 120.942L69.9606 113.272L69.8364 113.26L69.7132 113.28C48.4581 116.631 33.3295 116.81 3.12637 113.37L1.03398 71.3936L17.3043 64.7186L17.5186 64.6307L17.6724 64.4575L51.01 26.9236L87.9674 1.06651C88.5033 1.20001 88.8771 1.39372 89.1373 1.60964C89.4456 1.86548 89.6507 2.1983 89.7611 2.64329C89.9979 3.598 89.7885 5.0329 89.0815 6.9567C87.6825 10.7631 84.6353 15.7298 81.4159 20.9204C81.312 21.088 81.2078 21.2559 81.1036 21.4239C78.0185 26.3963 74.8375 31.5234 73.0739 35.7692C72.1658 37.9555 71.5804 40.0275 71.6441 41.7874C71.6765 42.6826 71.8779 43.5341 72.3227 44.2803C72.7722 45.0342 73.436 45.6227 74.2965 46.0347L74.5013 46.1328H74.7283H100.766H100.884L100.998 46.1056L164.366 31.018C166.375 32.3806 167.802 33.5644 168.723 34.6369C169.691 35.7642 170.031 36.685 170.002 37.5037C169.973 38.3373 169.556 39.2809 168.548 40.4328C167.561 41.5613 166.085 42.8009 164.098 44.2333L98.7106 66.3177L99.2304 68.245L99.0306 67.2652C99.2304 68.245 99.2306 68.2449 99.2311 68.2449L99.2335 68.2444L99.243 68.2424L99.2815 68.2346L99.4345 68.2036C99.5698 68.1763 99.7708 68.1358 100.033 68.0832C100.559 67.9781 101.331 67.8247 102.316 67.6318C104.286 67.2461 107.108 66.7028 110.515 66.0724C117.329 64.8113 126.479 63.2029 135.826 61.8115C145.179 60.4192 154.705 59.2481 162.281 58.8563C166.073 58.6602 169.342 58.6613 171.842 58.9184C173.093 59.0469 174.12 59.2366 174.911 59.4837C175.72 59.7364 176.182 60.0192 176.411 60.2663C177.928 61.9056 178.624 63.3163 178.878 64.4732C179.13 65.6207 178.963 66.5879 178.631 67.38C178.295 68.1848 177.782 68.8224 177.341 69.2648C177.122 69.4839 176.926 69.6492 176.789 69.7573Z" fill="white" stroke="#211D27" stroke-width="2"/>
</svg>
