<svg width="149" height="105" viewBox="0 0 149 105" fill="none" xmlns="http://www.w3.org/2000/svg">
<path d="M11.8227 94.5L1.18148 40.3266L35.1552 34.9879L35.4721 34.9381L35.7009 34.7132L64.4632 6.44682L104.982 1.01139C120.562 3.6777 128.489 6.18824 140.851 12.0598L123.524 89.7824L123.51 89.8429L123.505 89.9047C123.372 91.2872 122.308 92.8906 120.485 94.594C118.699 96.2623 116.351 97.8746 113.983 99.2917C111.622 100.705 109.276 101.903 107.518 102.749C106.64 103.171 105.911 103.505 105.402 103.732C105.189 103.828 105.014 103.904 104.884 103.961L104.791 103.944C104.533 103.896 104.151 103.825 103.657 103.733C102.668 103.551 101.229 103.287 99.4241 102.96C95.8152 102.307 90.7468 101.405 84.9078 100.407C73.2334 98.4123 58.4653 96.0342 46.1228 94.5076L46.0616 94.5H46H11.8227Z" fill="white" stroke="#211D27" stroke-width="2"/>
<line x1="93.9052" y1="22.9955" x2="72.9052" y2="20.9955" stroke="black" stroke-width="2"/>
<path d="M122.521 15.5207L146.253 19.8796C147.605 23.7109 148.062 26.504 147.708 29.0399C147.353 31.5755 146.171 33.9789 143.991 37H94.4394C91.5796 33.8549 90.2818 31.5923 90.2405 29.4811C90.1993 27.3717 91.4129 25.093 94.5086 21.9096L122.521 15.5207Z" fill="white" stroke="black" stroke-width="2"/>
<path d="M111.394 37.9943L111.498 38.0054L111.602 37.9949L140.552 35.0508C143.266 38.5759 144.346 41.2047 144.277 43.7229C144.208 46.2873 142.947 48.9521 140.446 52.549L110.006 55.4948L82.423 52.5395C78.2988 48.8802 77.0948 46.2835 77.4658 43.9043C77.6622 42.6447 78.3139 41.3127 79.4598 39.7905C80.5406 38.3547 82.0176 36.806 83.8549 35.0438L111.394 37.9943Z" fill="white" stroke="black" stroke-width="2"/>
<path d="M101.551 54H135.48C137.94 57.5425 139.018 60.191 139.001 62.7428C138.984 65.3114 137.857 67.9757 135.438 71.5497L105.005 74.4948L77.5306 71.5511C75.1415 68.4291 74.0277 66.1488 73.9921 63.9842C73.9568 61.8356 74.9835 59.5624 77.511 56.453L101.551 54Z" fill="white" stroke="black" stroke-width="2"/>
<path d="M128.175 88.316C128.012 88.8366 127.871 89.2633 127.765 89.5742L101.039 92.4898L69.6854 86.611C68.144 83.3113 67.6567 81.1222 68.1126 79.3584C68.5711 77.5843 70.0637 75.9562 73.2865 73.9952L130.185 73.0142C130.73 76.2394 130.18 80.2825 129.411 83.7098C129 85.5429 128.536 87.1587 128.175 88.316Z" fill="white" stroke="black" stroke-width="2"/>
</svg>
