<svg width="199" height="114" viewBox="0 0 199 114" fill="none" xmlns="http://www.w3.org/2000/svg">
<path d="M104.148 37.989L190.955 25.018C193.304 25.6025 194.9 26.6805 195.893 27.9579C196.912 29.2691 197.35 30.8587 197.254 32.5112C197.062 35.8372 194.696 39.4015 190.62 41.0746C188.51 41.941 183.836 43.1891 177.659 44.5805C171.513 45.9648 163.96 47.474 156.147 48.8711C140.489 51.6708 123.899 54 115.5 54H114.121L114.549 55.3106C116.986 62.7667 117.135 69.2632 116.589 76.6738C116.409 79.1147 116.151 81.672 115.876 84.3996C115.34 89.717 114.739 95.6812 114.523 102.69L67.4597 112.985L38.5086 109.026L6.91686 96.2914L1.09518 51.1731C10.6422 47.7088 18.7169 41.5004 25.1299 36.5696L25.2624 36.4677C28.5962 33.9045 31.4329 31.7313 33.8322 30.4017C36.2909 29.0393 37.9093 28.7814 39.0272 29.3812L39.5557 29.6647L40.0547 29.3321L50.0454 22.6716L62.0114 29.3725L62.5173 29.6558L63.0145 29.3575L70.3774 24.9399L114.222 14.9752L114.273 14.9635L114.323 14.9464L155.084 1.02811C161.428 2.07882 165.388 1.5156 167.64 1.19535C168.23 1.1114 168.703 1.04414 169.071 1.02703C169.517 1.00624 169.623 1.06987 169.629 1.07384C169.63 1.07419 169.631 1.07487 169.635 1.07851C169.638 1.08261 169.649 1.09436 169.663 1.11928C169.695 1.17257 169.741 1.27643 169.788 1.4662C169.883 1.85963 169.942 2.46242 169.972 3.39777C170 4.29362 170 5.42522 170 6.86993V7C170 8.0488 169.243 9.38749 167.454 10.9894C165.708 12.5533 163.17 14.1971 160.058 15.8691C153.843 19.2084 145.524 22.5636 137.163 25.5586C128.811 28.5504 120.454 31.1698 114.183 33.0418C111.048 33.9776 108.436 34.7261 106.608 35.2405C105.694 35.4977 104.976 35.6964 104.488 35.8306C104.243 35.8977 104.056 35.9488 103.93 35.9829L103.788 36.0215L103.752 36.0311L103.743 36.0335L103.741 36.0341C103.741 36.0342 103.741 36.0342 104 37L103.741 36.0342L104.148 37.989Z" fill="white" stroke="#211D27" stroke-width="2"/>
<path d="M124.282 102.35C123.951 102.783 123.672 103.135 123.466 103.391L97.3636 96.9507L69.9357 80.6619C69.6213 77.0335 69.9154 74.8102 70.9493 73.3102C71.9892 71.8015 73.9501 70.785 77.6504 70.0501L131.426 88.669C130.83 91.8851 128.924 95.4934 127.025 98.4481C126.009 100.029 125.019 101.387 124.282 102.35Z" fill="white" stroke="black" stroke-width="2"/>
<path d="M98.3167 76.6143L98.2223 76.5696L98.1207 76.5455L69.8056 69.8103C69.5455 69.07 69.3019 68.3938 69.0767 67.7691C68.6687 66.6366 68.3215 65.673 68.0472 64.8026C67.5905 63.3536 67.402 62.3506 67.4781 61.5133C67.6159 59.996 68.6599 58.6612 72.1819 56.1016L86.7071 60.5506L86.7619 60.5674L86.8182 60.5778C90.1722 61.1979 92.6004 61.3815 94.4723 60.9174C96.1557 60.5 97.3055 59.5841 98.2592 58.2549L130.466 72.4115C133.152 77.215 133.434 80.0599 132.303 82.1831C131.703 83.3081 130.65 84.352 129.068 85.413C127.575 86.4138 125.671 87.3912 123.356 88.4517L98.3167 76.6143Z" fill="white" stroke="black" stroke-width="2"/>
<path d="M49.9998 48.4226L85.9998 60.9999C99.6737 61.4898 99.9655 57.6861 95.9999 48.4225L49.9997 23C46.3803 27.9571 30 29 25.5001 37.5" stroke="#211D27" stroke-width="2"/>
</svg>
